<svg class="lds-gear" width="30px"  height="30px"  xmlns="http://www.w3.org/2000/svg" xmlns:xlink="http://www.w3.org/1999/xlink" viewBox="0 0 100 100" preserveAspectRatio="xMidYMid" style="background: none;"><g transform="translate(50 50)">
<g transform="rotate(336)">
<animateTransform attributeName="transform" type="rotate" values="0;360" keyTimes="0;1" dur="0.5s" repeatCount="indefinite"></animateTransform><path d="M14.142135623730951 -5 L49.14213562373095 -5 L49.14213562373095 5 L14.142135623730951 5 A15 15 0 0 1 -2.7409407929432805 14.747448713915892 L-2.7409407929432805 14.747448713915892 L-20.24094079294327 45.058337846371245 L-28.901194830787652 40.058337846371245 L-11.401194830787665 9.747448713915894 A15 15 0 0 1 -11.401194830787672 -9.747448713915887 L-11.401194830787672 -9.747448713915887 L-28.90119483078768 -40.05833784637123 L-20.240940792943302 -45.05833784637123 L-2.7409407929432907 -14.747448713915889 A15 15 0 0 1 14.142135623730951 -5.000000000000002 M0 -5A5 5 0 1 0 0 5 A5 5 0 1 0 0 -5" fill="#4658ac"></path></g></g></svg>